HIERARCHY
ROOT Hips
{
 OFFSET 0.000000 0.000000 0.000000
 CHANNELS 6 Xposition Yposition Zposition Yrotation Xrotation Zrotation
 JOINT Chest
 {
  OFFSET 0.000000 9.585900 0.002600
  CHANNELS 3 Yrotation Xrotation Zrotation
  JOINT Chest2
  {
   OFFSET 0.000000 9.601200 -0.005300
   CHANNELS 3 Yrotation Xrotation Zrotation
   JOINT Chest3
   {
    OFFSET 0.000000 9.561800 0.000000
    CHANNELS 3 Yrotation Xrotation Zrotation
    JOINT Chest4
    {
     OFFSET 0.000000 9.552100 0.000000
     CHANNELS 3 Yrotation Xrotation Zrotation
     JOINT Neck
     {
      OFFSET 0.000000 14.453000 0.000000
      CHANNELS 3 Yrotation Xrotation Zrotation
      JOINT Head
      {
       OFFSET 0.000000 8.936500 -0.011300
       CHANNELS 3 Yrotation Xrotation Zrotation
       End Site
       {
        OFFSET 0.000000 17.073600 -0.006000
       }
      }
     }
     JOINT RightCollar
     {
      OFFSET -2.921100 9.558500 0.000000
      CHANNELS 3 Yrotation Xrotation Zrotation
      JOINT RightShoulder
      {
       OFFSET -13.519700 0.000000 0.000000
       CHANNELS 3 Yrotation Xrotation Zrotation
       JOINT RightElbow
       {
        OFFSET 0.000000 -29.696600 0.000000
        CHANNELS 3 Yrotation Xrotation Zrotation
        JOINT RightWrist
        {
         OFFSET 0.000000 -24.004700 0.000000
         CHANNELS 3 Yrotation Xrotation Zrotation
         End Site
         {
          OFFSET 0.000000 -17.728500 0.000000
         }
        }
       }
      }
     }
     JOINT LeftCollar
     {
      OFFSET 2.921100 9.558500 0.000000
      CHANNELS 3 Yrotation Xrotation Zrotation
      JOINT LeftShoulder
      {
       OFFSET 13.519700 0.000000 0.000000
       CHANNELS 3 Yrotation Xrotation Zrotation
       JOINT LeftElbow
       {
        OFFSET 0.000000 -29.696600 0.000000
        CHANNELS 3 Yrotation Xrotation Zrotation
        JOINT LeftWrist
        {
         OFFSET 0.000000 -24.004700 0.000000
         CHANNELS 3 Yrotation Xrotation Zrotation
         End Site
         {
          OFFSET 0.000000 -17.728500 0.000000
         }
        }
       }
      }
     }
    }
   }
  }
 }
 JOINT RightHip
 {
  OFFSET -7.771700 -0.012900 -0.001300
  CHANNELS 3 Yrotation Xrotation Zrotation
  JOINT RightKnee
  {
   OFFSET 0.000000 -40.869800 0.001200
   CHANNELS 3 Yrotation Xrotation Zrotation
   JOINT RightAnkle
   {
    OFFSET 0.000000 -39.717900 0.002100
    CHANNELS 3 Yrotation Xrotation Zrotation
    JOINT RightToe
    {
     OFFSET 0.000000 -4.965400 11.033500
     CHANNELS 3 Yrotation Xrotation Zrotation
     End Site
     {
      OFFSET 0.000000 -1.423100 5.872300
     }
    }
   }
  }
 }
 JOINT LeftHip
 {
  OFFSET 7.771700 -0.012900 -0.001300
  CHANNELS 3 Yrotation Xrotation Zrotation
  JOINT LeftKnee
  {
   OFFSET 0.000000 -40.869800 0.001200
   CHANNELS 3 Yrotation Xrotation Zrotation
   JOINT LeftAnkle
   {
    OFFSET 0.000000 -39.717900 0.002100
    CHANNELS 3 Yrotation Xrotation Zrotation
    JOINT LeftToe
    {
     OFFSET 0.000000 -4.965400 11.033500
     CHANNELS 3 Yrotation Xrotation Zrotation
     End Site
     {
      OFFSET 0.000000 -1.423100 5.872300
     }
    }
   }
  }
 }
}
MOTION
Frames: 9
Frame Time: 0.008333
0.000000 85.388000 0.000000 0.000000 -5.767877 0.000000 0.000000 11.653817 0.000000 0.000000 -5.885947 0.000000 0.000000 -0.000000 0.000000 0.000000 -0.000000 0.000000 0.000000 12.528835 0.000000 0.000000 0.711642 0.000000 0.000000 -0.000000 0.000000 0.000000 0.000000 -90.000000 0.000000 -2.309062 0.000000 0.000000 2.309062 0.000000 0.000000 -0.000000 0.000000 0.000000 -0.000000 90.000000 0.000000 -2.309062 0.000000 0.000000 2.309062 0.000000 0.000000 8.520406 0.000000 0.000000 1.905762 0.000000 -0.000000 -4.658285 0.000000 0.000000 -0.000000 0.000000 0.000000 8.520406 0.000000 0.000000 1.905762 0.000000 -0.000000 -4.658285 0.000000 0.000000 -0.000000 0.000000
-190.767274 49.226914 10.878652 176.204514 -31.258350 -4.090752 1.155280 19.387359 2.931299 0.092444 2.348878 0.296030 0.132597 3.865096 0.480486 0.942417 16.757911 2.243496 11.377675 21.209937 -1.938035 21.081772 4.644640 -6.625821 -3.484013 -2.869596 -2.483922 1.018912 -10.427185 -12.825352 -42.375520 -44.100198 92.844196 1.626861 1.005090 -16.684415 -2.316180 -2.865005 3.737159 9.371419 -8.909725 9.862396 70.816721 -40.015866 -101.110552 16.204905 -4.043121 24.005162 -1.013739 -53.290043 -5.228118 -155.171237 81.217795 -142.761527 -30.199844 -3.430748 -2.136766 -0.160242 -11.729839 1.517643 -18.189161 -54.630911 20.997255 -73.175503 67.396339 -77.580767 30.541628 8.042145 13.325309 -0.018892 -0.322106 -0.000368
-190.767278 49.227575 10.880290 176.213188 -31.252777 -4.096625 1.167897 19.376782 2.944667 0.089207 2.350901 0.296251 0.164561 3.859055 0.492337 0.931878 16.766254 2.249475 11.540235 21.180492 -1.924120 21.390033 4.638508 -6.640102 -3.518119 -2.886162 -2.477024 0.987365 -10.385202 -12.782052 -42.323800 -44.077311 92.781848 1.598712 1.010055 -16.756565 -2.352771 -2.892183 3.741335 9.324042 -8.875533 9.857733 70.704281 -39.924260 -100.999878 16.238417 -4.049705 24.095712 -1.022145 -53.294534 -5.224108 -155.158398 81.219858 -142.749704 -30.198672 -3.428645 -2.133372 -0.160067 -11.729113 1.514188 -18.209373 -54.633097 21.016617 -73.161247 67.392073 -77.575949 30.536617 8.047685 13.324800 -0.012208 -0.320819 0.001050
-190.767262 49.228738 10.881010 176.217679 -31.252388 -4.101671 1.182404 19.365797 2.957365 0.077014 2.359114 0.294038 0.169559 3.854006 0.493954 0.951327 16.757503 2.264591 11.717108 21.169830 -1.907860 21.709636 4.652957 -6.643848 -3.551367 -2.893013 -2.469998 0.991006 -10.357874 -12.777019 -42.288083 -44.036150 92.734402 1.591841 1.008031 -16.807019 -2.379897 -2.905265 3.743768 9.283108 -8.848800 9.850108 70.577424 -39.801942 -100.884657 16.281097 -4.053124 24.206437 -1.024144 -53.294716 -5.215795 -155.112882 81.218948 -142.704974 -30.201665 -3.425839 -2.129146 -0.156076 -11.727970 1.512677 -18.217850 -54.632541 21.025829 -73.156401 67.393396 -77.574823 30.535946 8.054462 13.324255 -0.012945 -0.325831 0.003549
-190.767392 49.230068 10.881016 176.220945 -31.254152 -4.107054 1.198832 19.354607 2.971184 0.076322 2.357111 0.293944 0.161798 3.859383 0.493012 1.001932 16.714452 2.283101 11.872462 21.198590 -1.876196 22.032114 4.684618 -6.638452 -3.616816 -2.871218 -2.457164 1.000495 -10.328621 -12.787724 -42.257377 -43.995004 92.693925 1.617947 0.995488 -16.814119 -2.432325 -2.912822 3.764055 9.243798 -8.798293 9.831201 70.440251 -39.657192 -100.773633 16.332016 -4.053501 24.330558 -1.028210 -53.292751 -5.202874 -155.058847 81.215423 -142.655832 -30.200919 -3.422824 -2.120710 -0.156235 -11.726698 1.510332 -18.224474 -54.631125 21.034322 -73.154437 67.396045 -77.574631 30.536549 8.068353 13.321746 -0.014513 -0.337576 0.007455
-190.768620 49.230696 10.881294 176.223671 -31.249393 -4.108085 1.215264 19.335224 2.982171 0.096785 2.340140 0.299137 0.142728 3.872354 0.488750 1.014134 16.703344 2.290790 12.054063 21.213674 -1.845286 22.350615 4.734276 -6.626340 -3.656263 -2.876341 -2.441698 1.015755 -10.301287 -12.778326 -42.215819 -43.978906 92.628545 1.579824 0.999943 -16.884757 -2.454409 -2.946422 3.785995 9.216742 -8.741274 9.814758 70.299269 -39.500729 -100.684387 16.387910 -4.051224 24.455611 -1.017277 -53.298439 -5.207692 -155.017793 81.212773 -142.614912 -30.197306 -3.412936 -2.114506 -0.158758 -11.729562 1.509001 -18.228455 -54.636714 21.037524 -73.151087 67.397667 -77.571923 30.534625 8.077725 13.320597 -0.007613 -0.339449 0.007121
-190.770531 49.231695 10.880024 176.234599 -31.249916 -4.111004 1.220247 19.324975 2.988880 0.103173 2.332578 0.300120 0.168106 3.846911 0.495729 0.981983 16.731982 2.288147 12.247379 21.224471 -1.816495 22.658795 4.802645 -6.606829 -3.679377 -2.900270 -2.422458 1.044958 -10.302094 -12.753676 -42.152351 -43.965523 92.521685 1.541164 1.010915 -16.954580 -2.450930 -3.039613 3.826017 9.169558 -8.652990 9.784390 70.158474 -39.348269 -100.581552 16.442093 -4.049539 24.569332 -1.009594 -53.296457 -5.217917 -155.003120 81.213291 -142.600385 -30.197211 -3.404402 -2.107660 -0.154973 -11.732755 1.507411 -18.233440 -54.637527 21.032982 -73.152544 67.397536 -77.573578 30.530937 8.085177 13.318426 0.000845 -0.340020 0.007017
-190.773506 49.232572 10.877842 176.242827 -31.251529 -4.107667 1.229936 19.307884 2.990169 0.104487 2.329892 0.300566 0.170295 3.842757 0.496519 0.976429 16.741974 2.291659 12.431373 21.243521 -1.787384 22.953201 4.888589 -6.579163 -3.697823 -2.978708 -2.392912 1.061046 -10.235014 -12.767218 -42.121855 -43.952994 92.477016 1.513331 1.023036 -17.033837 -2.451413 -3.102193 3.853362 9.135271 -8.596278 9.761900 70.028881 -39.213372 -100.497387 16.486985 -4.050698 24.669214 -0.998970 -53.293876 -5.232709 -155.012917 81.211801 -142.613729 -30.195648 -3.403244 -2.097162 -0.155187 -11.731913 1.504364 -18.216804 -54.642519 21.006213 -73.167284 67.397658 -77.582819 30.535304 8.087435 13.322869 -0.001918 -0.337579 0.002224
-190.777042 49.234359 10.873153 176.259816 -31.265347 -4.105736 1.234838 19.296019 2.989003 0.091841 2.344364 0.298978 0.176007 3.834128 0.497106 0.997352 16.726554 2.299742 12.586825 21.290397 -1.749159 23.229067 4.993313 -6.544213 -3.729744 -2.996915 -2.376986 1.068362 -10.210793 -12.769176 -42.103301 -43.944214 92.450235 1.497993 1.036384 -17.112272 -2.472258 -3.128601 3.873923 9.114242 -8.541475 9.748914 69.932787 -39.108079 -100.459810 16.522668 -4.052489 24.753090 -0.990088 -53.277943 -5.250898 -155.136509 81.218619 -142.745908 -30.206289 -3.400236 -2.084842 -0.169095 -11.733171 1.508117 -18.200123 -54.633653 20.973264 -73.178992 67.390280 -77.596673 30.545295 8.085776 13.332150 -0.003731 -0.340367 -0.000272
